<svg xmlns="http://www.w3.org/2000/svg" width="14.008" height="46.034" viewBox="2.005 1.991 14.008 46.034"><path d="M15.806 46.334 3.264 25.042 15.842 3.688c.228-.388.228-1.018 0-1.406-.197-.334-.499-.38-.725-.14a.785.785 0 0 0-.104.14L2.176 24.076a1.09 1.09 0 0 0-.082.176c-.06.16-.09.344-.09.526a1.636 1.636 0 0 0 .034.329 1.63 1.63 0 0 0-.015.219c0 .182.03.364.088.524a1.083 1.083 0 0 0 .083.176l12.787 21.709a.784.784 0 0 0 .103.14c.225.24.526.193.722-.14a1.22 1.22 0 0 0 .137-.367c.073-.35.027-.754-.137-1.034Z" fill="rgba(236, 100, 75, 1)" fill-rule="evenodd" data-name="Rounded Rectangle 2 copy 7"/></svg>