<svg xmlns="http://www.w3.org/2000/svg" width="14.008" height="46.034" viewBox="207.987 2.022 14.008 46.034"><path d="m208.194 46.366 12.542-21.293-12.578-21.354a1.085 1.085 0 0 1-.083-.177c-.141-.383-.113-.895.083-1.229a.82.82 0 0 1 .08-.114c.229-.27.545-.231.748.114l12.837 21.794a1.087 1.087 0 0 1 .08.166c.06.163.092.35.092.537a1.635 1.635 0 0 1-.033.328 1.632 1.632 0 0 1 .015.219c0 .182-.03.364-.089.524a1.088 1.088 0 0 1-.082.177l-12.787 21.708a.786.786 0 0 1-.103.14c-.225.24-.526.193-.722-.14-.196-.332-.223-.842-.083-1.225a1.084 1.084 0 0 1 .083-.175Z" fill="rgba(236, 100, 75, 1)" fill-rule="evenodd" data-name="Rounded Rectangle 2 copy 2"/></svg>